<svg xmlns="http://www.w3.org/2000/svg" xmlns:xlink="http://www.w3.org/1999/xlink" width="206" zoomAndPan="magnify" viewBox="0 0 154.5 40.499999" height="54" preserveAspectRatio="xMidYMid meet" version="1.0"><defs><g/><clipPath id="0c405a45da"><path d="M 5.058594 0 L 35.433594 0 L 35.433594 40.007812 L 5.058594 40.007812 Z M 5.058594 0 " clip-rule="nonzero"/></clipPath></defs><g fill="#ffffff" fill-opacity="1"><g transform="translate(25.862131, 24.348577)"><g><path d="M 1.082031 -12.949219 L 1.082031 0 L 5.679688 0 L 5.679688 -5.101562 L 10.050781 -5.101562 L 10.050781 -8.015625 L 5.679688 -8.015625 L 5.679688 -10.035156 L 10.203125 -10.035156 L 10.203125 -12.949219 Z M 1.082031 -12.949219 "/></g></g></g><g fill="#ffffff" fill-opacity="1"><g transform="translate(36.549027, 24.348577)"><g><path d="M 1.289062 -12.949219 L 1.289062 0 L 5.886719 0 L 5.886719 -12.949219 Z M 1.289062 -12.949219 "/></g></g></g><g fill="#ffffff" fill-opacity="1"><g transform="translate(43.70476, 24.348577)"><g><path d="M 0.390625 -12.949219 L 0.390625 -9.660156 L 4.128906 -9.660156 L 4.128906 0 L 8.726562 0 L 8.726562 -9.660156 L 12.460938 -9.660156 L 12.460938 -12.949219 Z M 0.390625 -12.949219 "/></g></g></g><g fill="#ff6100" fill-opacity="1"><g transform="translate(56.561254, 24.348577)"><g><path d="M 0.390625 -12.949219 L 0.390625 -9.660156 L 4.128906 -9.660156 L 4.128906 0 L 8.726562 0 L 8.726562 -9.660156 L 12.460938 -9.660156 L 12.460938 -12.949219 Z M 0.390625 -12.949219 "/></g></g></g><g fill="#ff6100" fill-opacity="1"><g transform="translate(69.41542, 24.348577)"><g><path d="M 1.082031 -12.949219 L 1.082031 0 L 5.679688 0 L 5.679688 -5.457031 C 6.800781 -5.457031 7.25 -5.121094 7.867188 -4.09375 C 8.164062 -3.585938 8.519531 -2.878906 8.914062 -1.941406 L 9.734375 0 L 14.292969 0 L 12.574219 -3.664062 C 11.902344 -5.082031 11.285156 -5.996094 10.613281 -6.222656 C 11.902344 -6.726562 12.667969 -7.867188 12.667969 -9.136719 C 12.667969 -10.574219 12.089844 -11.660156 10.667969 -12.386719 C 9.957031 -12.761719 8.914062 -12.949219 7.492188 -12.949219 Z M 5.679688 -10.78125 L 6.222656 -10.78125 C 7.605469 -10.78125 8.238281 -10.332031 8.238281 -9.191406 C 8.238281 -8.183594 7.660156 -7.585938 6.164062 -7.585938 L 5.679688 -7.585938 Z M 5.679688 -10.78125 "/></g></g></g><g fill="#ff6100" fill-opacity="1"><g transform="translate(83.745573, 24.348577)"><g><path d="M 5.625 -12.949219 L 0.148438 0 L 4.859375 0 L 5.625 -2 L 10.425781 -2 L 11.15625 0 L 15.882812 0 L 10.425781 -12.949219 Z M 8.035156 -8.6875 L 9.453125 -4.691406 L 6.578125 -4.691406 Z M 8.035156 -8.6875 "/></g></g></g><g fill="#ff6100" fill-opacity="1"><g transform="translate(99.775916, 24.348577)"><g><path d="M 7.714844 -13.117188 C 2.074219 -13.117188 0.503906 -8.855469 0.503906 -6.410156 C 0.503906 -2.785156 3.214844 0.148438 7.625 0.148438 C 9.230469 0.148438 10.296875 -0.0742188 12.03125 -0.914062 L 12.03125 -4.445312 C 10.875 -3.699219 9.773438 -3.34375 8.613281 -3.34375 C 6.578125 -3.34375 5.101562 -4.671875 5.101562 -6.519531 C 5.101562 -8.390625 6.445312 -9.660156 8.390625 -9.660156 C 9.605469 -9.660156 10.761719 -9.25 11.921875 -8.390625 L 11.921875 -12.257812 C 10.5 -12.875 9.285156 -13.117188 7.714844 -13.117188 Z M 7.714844 -13.117188 "/></g></g></g><g fill="#ff6100" fill-opacity="1"><g transform="translate(112.256422, 24.348577)"><g><path d="M 1.082031 -12.949219 L 1.082031 0 L 5.679688 0 L 5.679688 -6.035156 L 9.773438 0 L 15.226562 0 L 10.296875 -6.800781 L 15.132812 -12.949219 L 10.296875 -12.949219 L 5.679688 -7.042969 L 5.679688 -12.949219 Z M 1.082031 -12.949219 "/></g></g></g><g clip-path="url(#0c405a45da)"><path fill="#000000" d="M 16.082031 1.621094 C 16.113281 1.621094 16.246094 1.761719 16.246094 1.792969 C 16.246094 1.808594 16.261719 1.847656 16.28125 1.878906 C 16.332031 1.976562 16.464844 2.429688 16.464844 2.503906 C 16.464844 2.546875 16.457031 2.605469 16.445312 2.644531 C 16.433594 2.683594 16.402344 2.792969 16.371094 2.890625 C 16.34375 2.988281 16.316406 3.089844 16.304688 3.113281 C 16.292969 3.140625 16.253906 3.230469 16.222656 3.316406 C 16.164062 3.457031 16.132812 3.527344 16.113281 3.527344 C 16.097656 3.527344 16.09375 3.453125 16.097656 3.304688 C 16.105469 3.144531 16.121094 3.019531 16.136719 2.984375 C 16.160156 2.945312 16.171875 2.8125 16.175781 2.574219 C 16.183594 2.265625 16.175781 2.203125 16.132812 2.070312 C 16.105469 1.988281 16.082031 1.902344 16.082031 1.882812 C 16.082031 1.859375 16.066406 1.820312 16.046875 1.796875 C 16.003906 1.742188 16 1.6875 16.039062 1.648438 C 16.054688 1.632812 16.074219 1.621094 16.082031 1.621094 Z M 18.320312 3.785156 C 18.359375 3.785156 18.449219 3.882812 18.523438 3.996094 L 18.566406 4.074219 L 18.515625 4.074219 C 18.433594 4.074219 18.253906 3.808594 18.316406 3.785156 C 18.316406 3.785156 18.320312 3.785156 18.320312 3.785156 Z M 16.125 4.632812 C 16.140625 4.632812 16.152344 4.644531 16.152344 4.65625 C 16.152344 4.667969 16.148438 4.679688 16.140625 4.679688 C 16.136719 4.679688 16.125 4.667969 16.117188 4.65625 C 16.109375 4.644531 16.113281 4.632812 16.125 4.632812 Z M 13.691406 0 C 13.460938 0 13.324219 0.0078125 13.246094 0.03125 C 13.175781 0.046875 12.96875 0.09375 12.785156 0.128906 C 12.488281 0.1875 12.292969 0.261719 12.179688 0.355469 C 12.164062 0.367188 12.113281 0.382812 12.0625 0.390625 C 11.917969 0.417969 11.542969 0.6875 11.449219 0.832031 C 11.402344 0.894531 11.371094 0.964844 11.371094 0.984375 C 11.371094 1.003906 11.347656 1.0625 11.324219 1.109375 C 11.296875 1.160156 11.277344 1.214844 11.277344 1.230469 C 11.277344 1.273438 11.191406 1.535156 11.140625 1.632812 C 11.035156 1.851562 10.957031 2.574219 11.007812 2.859375 C 11.0625 3.167969 11.0625 3.183594 11.019531 3.300781 C 10.996094 3.363281 10.949219 3.460938 10.914062 3.519531 C 10.738281 3.8125 10.710938 3.871094 10.683594 3.992188 C 10.65625 4.136719 10.667969 4.304688 10.714844 4.359375 C 10.730469 4.378906 10.820312 4.433594 10.910156 4.472656 L 11.074219 4.554688 L 11.078125 4.691406 C 11.082031 4.796875 11.097656 4.847656 11.136719 4.894531 C 11.164062 4.929688 11.1875 4.980469 11.1875 5.003906 C 11.191406 5.097656 11.261719 5.230469 11.328125 5.257812 C 11.429688 5.296875 11.488281 5.394531 11.503906 5.542969 C 11.523438 5.703125 11.585938 5.839844 11.671875 5.902344 C 11.722656 5.9375 11.757812 5.949219 11.90625 5.949219 C 11.933594 5.949219 11.964844 5.945312 12.003906 5.945312 L 12.265625 5.945312 L 12.488281 5.832031 C 12.609375 5.769531 12.726562 5.703125 12.746094 5.6875 C 12.789062 5.648438 12.882812 5.621094 12.953125 5.621094 C 12.972656 5.621094 12.988281 5.621094 13 5.625 C 13.027344 5.636719 13.136719 5.726562 13.246094 5.828125 C 13.402344 5.976562 13.453125 6.046875 13.554688 6.242188 C 13.667969 6.457031 13.722656 6.621094 13.757812 6.882812 C 13.773438 6.976562 13.769531 6.988281 13.671875 7.089844 C 13.617188 7.152344 13.507812 7.242188 13.433594 7.296875 C 13.28125 7.40625 13.121094 7.566406 13.101562 7.628906 C 13.085938 7.683594 12.894531 7.792969 12.75 7.828125 C 12.222656 7.964844 12.011719 8.085938 11.910156 8.316406 C 11.886719 8.359375 11.847656 8.4375 11.820312 8.484375 C 11.667969 8.746094 11.617188 8.835938 11.570312 8.953125 C 11.542969 9.023438 11.503906 9.125 11.480469 9.179688 C 11.460938 9.230469 11.417969 9.367188 11.390625 9.484375 C 11.363281 9.601562 11.328125 9.75 11.308594 9.816406 C 11.289062 9.878906 11.261719 10.015625 11.242188 10.117188 C 11.214844 10.261719 11.1875 10.332031 11.105469 10.460938 C 11.046875 10.546875 10.972656 10.671875 10.9375 10.738281 C 10.898438 10.800781 10.839844 10.914062 10.800781 10.980469 C 10.761719 11.050781 10.707031 11.144531 10.679688 11.183594 C 10.652344 11.226562 10.621094 11.285156 10.613281 11.316406 C 10.605469 11.347656 10.566406 11.414062 10.523438 11.464844 C 10.460938 11.550781 10.371094 11.734375 10.195312 12.128906 C 10.179688 12.167969 10.15625 12.226562 10.152344 12.261719 C 10.128906 12.339844 9.996094 12.636719 9.859375 12.894531 L 9.820312 12.972656 L 9.785156 12.921875 C 9.761719 12.890625 9.667969 12.789062 9.574219 12.691406 C 9.476562 12.59375 9.328125 12.4375 9.242188 12.351562 C 9.15625 12.257812 9.039062 12.144531 8.980469 12.09375 C 8.84375 11.972656 8.574219 11.632812 8.425781 11.394531 C 8.363281 11.292969 8.296875 11.207031 8.28125 11.199219 C 8.253906 11.191406 7.960938 10.765625 7.960938 10.734375 C 7.960938 10.726562 7.917969 10.664062 7.871094 10.585938 C 7.722656 10.375 7.515625 9.964844 7.5 9.847656 C 7.488281 9.773438 7.492188 9.699219 7.511719 9.625 C 7.535156 9.5625 7.554688 9.417969 7.558594 9.300781 C 7.566406 9.183594 7.589844 9.03125 7.605469 8.960938 C 7.625 8.890625 7.640625 8.757812 7.640625 8.667969 C 7.640625 8.523438 7.628906 8.488281 7.546875 8.347656 C 7.496094 8.261719 7.445312 8.15625 7.4375 8.109375 C 7.425781 8.066406 7.410156 8.019531 7.398438 8.007812 C 7.390625 7.996094 7.375 7.9375 7.367188 7.878906 C 7.355469 7.820312 7.320312 7.707031 7.28125 7.628906 C 7.246094 7.554688 7.207031 7.441406 7.199219 7.378906 C 7.191406 7.304688 7.152344 7.226562 7.105469 7.160156 C 7.042969 7.070312 7.023438 7.058594 6.945312 7.058594 C 6.941406 7.058594 6.941406 7.058594 6.9375 7.058594 C 6.855469 7.058594 6.828125 7.074219 6.742188 7.167969 C 6.679688 7.234375 6.652344 7.257812 6.625 7.257812 C 6.613281 7.257812 6.601562 7.253906 6.589844 7.246094 C 6.566406 7.234375 6.519531 7.230469 6.464844 7.230469 C 6.351562 7.230469 6.210938 7.253906 6.171875 7.285156 C 6.144531 7.3125 6.089844 7.324219 5.988281 7.324219 C 5.851562 7.328125 5.835938 7.332031 5.761719 7.40625 C 5.714844 7.453125 5.679688 7.5 5.679688 7.511719 C 5.679688 7.527344 5.65625 7.539062 5.628906 7.539062 C 5.601562 7.539062 5.539062 7.5625 5.492188 7.589844 C 5.398438 7.644531 5.394531 7.652344 5.339844 7.933594 C 5.332031 7.964844 5.300781 7.996094 5.25 8.011719 C 5.082031 8.070312 5.066406 8.25 5.179688 8.910156 C 5.207031 9.078125 5.242188 9.164062 5.410156 9.484375 C 5.554688 9.769531 5.636719 9.894531 5.746094 10.011719 C 5.824219 10.09375 5.902344 10.199219 5.925781 10.246094 C 5.945312 10.289062 5.996094 10.359375 6.03125 10.398438 C 6.066406 10.433594 6.132812 10.53125 6.179688 10.609375 C 6.226562 10.683594 6.316406 10.84375 6.386719 10.960938 C 6.542969 11.21875 6.648438 11.417969 6.648438 11.457031 C 6.648438 11.5 6.816406 11.835938 6.875 11.90625 C 6.902344 11.941406 6.960938 12.046875 7.003906 12.144531 C 7.109375 12.367188 7.261719 12.671875 7.324219 12.777344 C 7.351562 12.820312 7.386719 12.898438 7.40625 12.949219 C 7.421875 12.996094 7.460938 13.070312 7.492188 13.113281 C 7.527344 13.152344 7.570312 13.230469 7.597656 13.28125 C 7.621094 13.332031 7.691406 13.464844 7.753906 13.574219 C 7.820312 13.683594 7.902344 13.832031 7.9375 13.902344 C 7.976562 13.972656 8.042969 14.070312 8.089844 14.121094 C 8.132812 14.167969 8.238281 14.300781 8.320312 14.421875 C 8.402344 14.539062 8.539062 14.710938 8.628906 14.800781 C 8.878906 15.058594 9.230469 15.511719 9.375 15.761719 C 9.453125 15.894531 9.582031 15.960938 9.738281 15.960938 C 9.855469 15.960938 9.988281 15.921875 10.125 15.839844 C 10.214844 15.785156 10.296875 15.742188 10.308594 15.742188 C 10.316406 15.742188 10.339844 15.726562 10.355469 15.707031 C 10.371094 15.683594 10.40625 15.65625 10.433594 15.644531 C 10.714844 15.519531 10.871094 15.390625 11.109375 15.089844 C 11.171875 15.011719 11.25 14.929688 11.285156 14.902344 C 11.371094 14.839844 11.605469 14.566406 11.679688 14.445312 C 11.714844 14.390625 11.824219 14.253906 11.921875 14.136719 C 12.019531 14.023438 12.128906 13.875 12.164062 13.8125 C 12.199219 13.746094 12.300781 13.59375 12.394531 13.46875 C 12.484375 13.347656 12.589844 13.199219 12.628906 13.136719 C 12.664062 13.074219 12.738281 12.960938 12.789062 12.882812 C 12.84375 12.804688 12.894531 12.71875 12.910156 12.695312 C 12.921875 12.675781 12.929688 12.667969 12.9375 12.667969 C 12.953125 12.667969 12.972656 12.683594 13.015625 12.722656 C 13.125 12.828125 13.402344 12.996094 13.539062 13.042969 C 13.605469 13.066406 13.785156 13.097656 13.941406 13.113281 C 14.257812 13.144531 14.371094 13.1875 14.429688 13.300781 C 14.507812 13.453125 14.78125 13.84375 14.871094 13.941406 C 14.925781 14 15.019531 14.121094 15.078125 14.210938 C 15.136719 14.300781 15.3125 14.511719 15.472656 14.675781 C 15.765625 14.980469 15.808594 15.042969 15.941406 15.347656 C 15.984375 15.441406 16.054688 15.601562 16.101562 15.699219 C 16.148438 15.796875 16.207031 15.921875 16.234375 15.984375 L 16.277344 16.089844 L 16.191406 16.117188 C 16.140625 16.132812 16.085938 16.144531 16.074219 16.148438 C 16.0625 16.148438 15.992188 16.171875 15.921875 16.207031 C 15.851562 16.238281 15.78125 16.265625 15.761719 16.265625 C 15.746094 16.265625 15.683594 16.292969 15.617188 16.320312 C 15.554688 16.351562 15.445312 16.386719 15.375 16.394531 C 15.304688 16.40625 15.234375 16.421875 15.21875 16.4375 C 15.210938 16.449219 15.175781 16.460938 15.148438 16.460938 C 15.105469 16.460938 14.867188 16.527344 14.703125 16.585938 C 14.664062 16.601562 14.585938 16.625 14.527344 16.648438 C 14.46875 16.667969 14.390625 16.707031 14.355469 16.730469 C 14.324219 16.753906 14.285156 16.773438 14.269531 16.773438 C 14.257812 16.773438 14.203125 16.792969 14.15625 16.820312 C 14.109375 16.847656 14.050781 16.867188 14.035156 16.867188 C 14.011719 16.867188 13.972656 16.886719 13.949219 16.90625 C 13.925781 16.921875 13.886719 16.941406 13.871094 16.941406 C 13.851562 16.941406 13.792969 16.960938 13.746094 16.988281 C 13.699219 17.015625 13.640625 17.035156 13.621094 17.035156 C 13.605469 17.035156 13.503906 17.078125 13.40625 17.132812 C 13.304688 17.1875 13.160156 17.257812 13.082031 17.292969 C 13.007812 17.324219 12.851562 17.414062 12.738281 17.492188 C 12.625 17.566406 12.511719 17.636719 12.484375 17.644531 C 12.40625 17.671875 12.082031 17.855469 11.910156 17.96875 C 11.820312 18.027344 11.722656 18.089844 11.691406 18.105469 C 11.65625 18.121094 11.566406 18.1875 11.492188 18.253906 C 11.414062 18.316406 11.308594 18.394531 11.257812 18.421875 C 11.164062 18.472656 10.9375 18.636719 10.875 18.699219 C 10.820312 18.753906 10.652344 18.863281 10.527344 18.925781 C 10.460938 18.964844 10.324219 19.074219 10.21875 19.175781 C 10.121094 19.277344 10.011719 19.382812 9.980469 19.410156 C 9.894531 19.484375 9.820312 19.578125 9.820312 19.601562 C 9.820312 19.613281 9.785156 19.632812 9.742188 19.652344 C 9.664062 19.679688 9.585938 19.796875 9.585938 19.886719 C 9.585938 19.910156 9.5625 19.964844 9.535156 20.011719 C 9.460938 20.128906 9.40625 20.253906 9.328125 20.476562 C 9.253906 20.691406 9.25 20.75 9.292969 20.835938 C 9.3125 20.871094 9.335938 20.933594 9.34375 20.976562 C 9.363281 21.078125 10.167969 22.652344 10.292969 22.828125 C 10.339844 22.898438 10.386719 22.984375 10.398438 23.019531 C 10.425781 23.101562 10.523438 23.292969 10.613281 23.429688 C 10.714844 23.582031 10.804688 23.738281 10.851562 23.835938 C 10.871094 23.878906 10.933594 23.96875 10.992188 24.035156 C 11.046875 24.101562 11.121094 24.195312 11.152344 24.246094 C 11.1875 24.300781 11.269531 24.394531 11.335938 24.457031 C 11.402344 24.519531 11.457031 24.582031 11.457031 24.59375 C 11.457031 24.636719 11.707031 24.972656 11.859375 25.136719 C 11.945312 25.234375 12.039062 25.351562 12.066406 25.398438 C 12.089844 25.449219 12.246094 25.617188 12.410156 25.78125 C 12.574219 25.941406 12.734375 26.113281 12.769531 26.164062 C 12.832031 26.265625 12.914062 26.355469 13.050781 26.46875 C 13.09375 26.507812 13.164062 26.582031 13.195312 26.632812 C 13.230469 26.683594 13.300781 26.773438 13.355469 26.828125 C 13.410156 26.886719 13.5 26.988281 13.554688 27.054688 C 13.609375 27.121094 13.707031 27.230469 13.769531 27.300781 C 13.875 27.429688 13.925781 27.492188 14.15625 27.820312 C 14.21875 27.910156 14.277344 27.980469 14.285156 27.980469 C 14.296875 27.980469 14.308594 27.992188 14.308594 28.007812 C 14.308594 28.027344 14.328125 28.0625 14.355469 28.085938 C 14.382812 28.105469 14.402344 28.136719 14.402344 28.144531 C 14.402344 28.152344 14.464844 28.246094 14.539062 28.347656 C 14.613281 28.445312 14.710938 28.597656 14.753906 28.6875 C 14.796875 28.773438 14.855469 28.855469 14.878906 28.867188 C 14.941406 28.902344 14.9375 28.9375 14.859375 29.035156 C 14.824219 29.078125 14.789062 29.136719 14.78125 29.15625 C 14.769531 29.1875 14.738281 29.199219 14.667969 29.199219 L 14.570312 29.199219 L 14.585938 29.300781 C 14.605469 29.441406 14.605469 29.4375 14.582031 29.542969 C 14.53125 29.738281 14.574219 30.070312 14.648438 30.070312 L 14.652344 30.070312 C 14.691406 30.070312 14.726562 30.160156 14.710938 30.222656 C 14.703125 30.257812 14.683594 30.28125 14.671875 30.28125 C 14.640625 30.28125 14.550781 30.386719 14.488281 30.484375 C 14.4375 30.566406 14.433594 30.761719 14.476562 30.847656 C 14.5 30.898438 14.601562 30.964844 14.691406 30.996094 C 14.710938 31.003906 14.664062 31.117188 14.554688 31.320312 C 14.539062 31.351562 14.5 31.429688 14.472656 31.492188 C 14.441406 31.554688 14.402344 31.621094 14.378906 31.644531 C 14.355469 31.664062 14.335938 31.714844 14.335938 31.753906 C 14.335938 31.792969 14.316406 31.859375 14.289062 31.898438 C 14.265625 31.9375 14.242188 32.007812 14.246094 32.058594 C 14.246094 32.109375 14.230469 32.1875 14.207031 32.230469 C 14.167969 32.316406 13.988281 32.511719 13.886719 32.582031 C 13.851562 32.601562 13.769531 32.675781 13.703125 32.738281 C 13.566406 32.863281 13.335938 33.046875 13.304688 33.046875 C 13.292969 33.046875 13.253906 33.097656 13.21875 33.160156 C 13.15625 33.257812 13.148438 33.292969 13.148438 33.4375 C 13.148438 33.527344 13.164062 33.617188 13.175781 33.628906 C 13.1875 33.640625 13.210938 33.714844 13.222656 33.789062 C 13.25 33.964844 13.289062 34.015625 13.449219 34.105469 C 13.542969 34.160156 13.570312 34.175781 13.675781 34.175781 C 13.71875 34.175781 13.769531 34.171875 13.84375 34.167969 C 14.003906 34.160156 14.132812 34.144531 14.167969 34.125 C 14.199219 34.105469 14.273438 34.082031 14.332031 34.074219 C 14.492188 34.046875 14.710938 33.984375 14.8125 33.929688 C 14.863281 33.90625 14.925781 33.882812 14.949219 33.882812 C 14.972656 33.882812 15.050781 33.84375 15.125 33.800781 C 15.199219 33.757812 15.304688 33.707031 15.371094 33.6875 C 15.445312 33.667969 15.507812 33.632812 15.570312 33.566406 C 15.632812 33.503906 15.691406 33.46875 15.761719 33.449219 C 15.902344 33.417969 15.964844 33.371094 16.003906 33.273438 C 16.042969 33.1875 16.140625 33.121094 16.242188 33.121094 C 16.320312 33.117188 16.390625 33.082031 16.457031 33 C 16.488281 32.960938 16.570312 32.898438 16.640625 32.859375 C 16.710938 32.816406 16.777344 32.765625 16.785156 32.746094 C 16.789062 32.726562 16.847656 32.6875 16.910156 32.65625 C 16.972656 32.632812 17.070312 32.558594 17.136719 32.5 C 17.195312 32.441406 17.296875 32.371094 17.359375 32.351562 C 17.484375 32.300781 17.75 32.128906 17.75 32.097656 C 17.75 32.085938 17.863281 32.023438 18.003906 31.953125 C 18.140625 31.886719 18.292969 31.792969 18.335938 31.75 C 18.378906 31.710938 18.5 31.621094 18.601562 31.558594 C 18.703125 31.492188 18.804688 31.410156 18.832031 31.378906 C 18.851562 31.34375 18.960938 31.253906 19.070312 31.179688 C 19.40625 30.953125 19.5625 30.753906 19.5625 30.566406 C 19.5625 30.464844 19.550781 30.449219 19.46875 30.375 C 19.414062 30.332031 19.347656 30.289062 19.3125 30.28125 C 19.28125 30.273438 19.234375 30.261719 19.214844 30.253906 C 19.191406 30.25 19.171875 30.222656 19.171875 30.195312 C 19.171875 30.171875 19.15625 30.121094 19.136719 30.089844 C 19.117188 30.054688 19.082031 29.984375 19.0625 29.9375 C 19.039062 29.886719 18.976562 29.8125 18.925781 29.773438 C 18.875 29.730469 18.785156 29.628906 18.726562 29.539062 C 18.597656 29.351562 18.15625 28.902344 18.019531 28.824219 C 17.96875 28.792969 17.859375 28.707031 17.78125 28.632812 C 17.597656 28.460938 17.539062 28.425781 17.441406 28.425781 C 17.4375 28.425781 17.433594 28.425781 17.433594 28.425781 C 17.34375 28.425781 17.320312 28.410156 17.277344 28.332031 C 17.261719 28.300781 17.164062 28.164062 17.0625 28.027344 C 16.957031 27.890625 16.839844 27.71875 16.796875 27.640625 C 16.753906 27.5625 16.683594 27.457031 16.632812 27.402344 C 16.503906 27.253906 16.441406 27.167969 16.441406 27.136719 C 16.441406 27.121094 16.425781 27.089844 16.410156 27.070312 C 16.382812 27.035156 16.144531 26.652344 16.058594 26.492188 C 15.96875 26.332031 15.726562 25.847656 15.726562 25.828125 C 15.726562 25.816406 15.679688 25.75 15.621094 25.683594 C 15.5625 25.613281 15.507812 25.53125 15.5 25.496094 C 15.488281 25.464844 15.464844 25.394531 15.441406 25.34375 C 15.347656 25.148438 15.324219 25.082031 15.277344 24.933594 C 15.25 24.847656 15.222656 24.726562 15.210938 24.664062 C 15.199219 24.597656 15.179688 24.511719 15.160156 24.464844 C 15.140625 24.425781 15.125 24.359375 15.125 24.320312 C 15.125 24.21875 15.015625 23.917969 14.871094 23.628906 C 14.839844 23.566406 14.8125 23.496094 14.8125 23.472656 C 14.8125 23.453125 14.800781 23.425781 14.789062 23.417969 C 14.777344 23.410156 14.738281 23.34375 14.703125 23.273438 C 14.671875 23.195312 14.632812 23.121094 14.621094 23.101562 C 14.609375 23.085938 14.566406 23.011719 14.527344 22.945312 C 14.488281 22.878906 14.433594 22.808594 14.410156 22.792969 C 14.390625 22.777344 14.34375 22.714844 14.308594 22.65625 C 14.21875 22.503906 13.769531 21.960938 13.632812 21.839844 C 13.519531 21.734375 13.410156 21.589844 13.410156 21.535156 C 13.410156 21.488281 13.621094 21.414062 13.84375 21.378906 C 13.9375 21.363281 14.027344 21.351562 14.058594 21.351562 C 14.0625 21.351562 14.066406 21.351562 14.066406 21.351562 C 14.070312 21.355469 14.074219 21.355469 14.082031 21.355469 C 14.121094 21.355469 14.234375 21.34375 14.363281 21.328125 C 14.609375 21.292969 17.402344 21.199219 18.273438 21.191406 L 18.515625 21.1875 L 18.511719 21.121094 C 18.511719 21.054688 18.550781 21.023438 18.703125 20.988281 L 18.761719 20.976562 L 18.761719 21.652344 C 18.757812 22.027344 18.765625 22.410156 18.773438 22.511719 C 18.792969 22.726562 18.816406 22.769531 19.019531 22.769531 C 19.050781 22.769531 19.082031 22.769531 19.121094 22.765625 C 19.179688 22.765625 19.226562 22.761719 19.265625 22.761719 C 19.414062 22.761719 19.421875 22.789062 19.421875 22.902344 C 19.421875 22.96875 19.445312 23.078125 19.46875 23.152344 C 19.496094 23.226562 19.519531 23.339844 19.53125 23.398438 C 19.539062 23.460938 19.554688 23.515625 19.570312 23.523438 C 19.582031 23.53125 19.589844 23.566406 19.589844 23.605469 C 19.59375 23.671875 19.71875 24.066406 19.773438 24.167969 C 19.808594 24.238281 19.894531 24.460938 19.917969 24.546875 C 19.921875 24.578125 19.941406 24.625 19.953125 24.652344 C 19.964844 24.675781 20.003906 24.785156 20.046875 24.898438 C 20.136719 25.148438 20.238281 25.394531 20.265625 25.421875 C 20.277344 25.4375 20.289062 25.460938 20.289062 25.480469 C 20.289062 25.507812 20.378906 25.699219 20.433594 25.789062 C 20.445312 25.808594 20.488281 25.902344 20.53125 26 C 20.574219 26.097656 20.636719 26.238281 20.671875 26.316406 C 20.710938 26.394531 20.761719 26.527344 20.792969 26.609375 C 20.859375 26.8125 20.976562 27.058594 21.019531 27.089844 C 21.039062 27.101562 21.082031 27.191406 21.113281 27.285156 C 21.148438 27.382812 21.21875 27.523438 21.269531 27.605469 C 21.320312 27.6875 21.363281 27.761719 21.363281 27.777344 C 21.363281 27.789062 21.402344 27.859375 21.449219 27.933594 C 21.492188 28.007812 21.53125 28.082031 21.53125 28.09375 C 21.53125 28.105469 21.617188 28.238281 21.71875 28.386719 C 21.816406 28.53125 21.914062 28.671875 21.925781 28.691406 C 22.1875 29.105469 22.503906 29.464844 22.683594 29.550781 C 22.738281 29.574219 22.785156 29.601562 22.789062 29.609375 C 22.796875 29.621094 22.84375 29.644531 22.890625 29.667969 C 22.941406 29.695312 23.046875 29.746094 23.125 29.785156 C 23.261719 29.851562 23.566406 29.953125 23.625 29.953125 C 23.644531 29.953125 24.117188 30.183594 24.339844 30.296875 C 24.363281 30.308594 24.433594 30.339844 24.492188 30.363281 C 24.707031 30.445312 24.8125 30.496094 24.902344 30.558594 C 25.070312 30.667969 25.261719 30.789062 25.277344 30.789062 C 25.292969 30.789062 25.402344 30.859375 25.585938 30.996094 C 25.664062 31.050781 25.785156 31.132812 25.851562 31.171875 C 25.921875 31.210938 26.042969 31.292969 26.121094 31.351562 C 26.199219 31.414062 26.269531 31.464844 26.273438 31.464844 C 26.277344 31.464844 26.429688 31.5625 26.613281 31.679688 C 26.792969 31.796875 26.996094 31.921875 27.066406 31.953125 C 27.140625 31.984375 27.21875 32.035156 27.246094 32.0625 C 27.273438 32.089844 27.367188 32.152344 27.457031 32.199219 C 27.550781 32.246094 27.65625 32.300781 27.695312 32.324219 C 27.734375 32.347656 27.792969 32.371094 27.828125 32.378906 C 27.863281 32.386719 27.996094 32.460938 28.121094 32.546875 C 28.25 32.628906 28.359375 32.695312 28.367188 32.695312 C 28.378906 32.695312 28.460938 32.753906 28.558594 32.824219 C 28.65625 32.894531 28.832031 33 28.953125 33.0625 C 29.109375 33.136719 29.191406 33.195312 29.230469 33.246094 C 29.257812 33.292969 29.382812 33.410156 29.507812 33.507812 C 29.628906 33.605469 29.777344 33.734375 29.835938 33.792969 C 30.101562 34.042969 30.253906 34.179688 30.308594 34.210938 C 30.382812 34.261719 30.90625 34.773438 31.105469 34.992188 C 31.289062 35.199219 31.339844 35.28125 31.367188 35.410156 L 31.382812 35.492188 L 31.277344 35.472656 C 31.210938 35.460938 31.148438 35.453125 31.097656 35.453125 C 31.023438 35.453125 30.96875 35.46875 30.945312 35.492188 C 30.925781 35.511719 30.902344 35.570312 30.894531 35.621094 L 30.878906 35.710938 L 30.792969 35.679688 C 30.746094 35.664062 30.671875 35.628906 30.628906 35.609375 C 30.59375 35.589844 30.558594 35.582031 30.53125 35.582031 C 30.425781 35.582031 30.371094 35.679688 30.46875 35.769531 C 30.496094 35.800781 30.574219 35.84375 30.640625 35.867188 C 30.707031 35.890625 30.773438 35.925781 30.792969 35.9375 C 30.847656 35.980469 31.0625 36.019531 31.246094 36.019531 C 31.253906 36.019531 31.257812 36.019531 31.261719 36.019531 C 31.375 36.019531 31.4375 36.03125 31.488281 36.066406 C 31.527344 36.089844 31.574219 36.117188 31.59375 36.121094 C 31.917969 36.253906 31.925781 36.265625 32.007812 36.488281 C 32.03125 36.546875 32.101562 36.683594 32.167969 36.789062 C 32.230469 36.894531 32.285156 36.984375 32.285156 36.992188 C 32.285156 37 32.320312 37.082031 32.367188 37.175781 C 32.414062 37.269531 32.453125 37.363281 32.453125 37.386719 C 32.453125 37.433594 32.601562 37.679688 32.652344 37.726562 C 32.6875 37.753906 32.832031 38.027344 32.832031 38.066406 C 32.832031 38.070312 32.863281 38.140625 32.894531 38.210938 C 33.003906 38.441406 33.097656 38.667969 33.171875 38.886719 C 33.210938 39 33.253906 39.117188 33.265625 39.144531 C 33.414062 39.488281 33.515625 39.644531 33.691406 39.800781 C 33.75 39.851562 33.820312 39.914062 33.851562 39.941406 C 33.898438 39.984375 34.003906 40.007812 34.132812 40.007812 C 34.179688 40.007812 34.230469 40.003906 34.285156 40 C 34.484375 39.972656 34.710938 39.824219 34.914062 39.589844 C 35.082031 39.394531 35.15625 39.265625 35.183594 39.101562 C 35.195312 39.050781 35.214844 38.992188 35.230469 38.964844 C 35.25 38.9375 35.261719 38.851562 35.261719 38.730469 C 35.261719 38.582031 35.269531 38.535156 35.304688 38.496094 C 35.394531 38.394531 35.425781 38.148438 35.371094 37.992188 C 35.351562 37.933594 35.355469 37.894531 35.382812 37.804688 C 35.429688 37.667969 35.414062 37.554688 35.335938 37.390625 C 35.296875 37.3125 35.285156 37.257812 35.296875 37.234375 C 35.339844 37.144531 35.34375 37.003906 35.308594 36.914062 C 35.28125 36.863281 35.257812 36.734375 35.246094 36.625 C 35.234375 36.519531 35.210938 36.414062 35.195312 36.394531 C 35.171875 36.371094 35.160156 36.269531 35.152344 36.117188 C 35.148438 35.988281 35.132812 35.859375 35.117188 35.828125 C 35.097656 35.789062 35.09375 35.753906 35.117188 35.695312 C 35.152344 35.597656 35.148438 35.253906 35.113281 35.175781 C 35.089844 35.128906 35.089844 35.082031 35.113281 34.964844 C 35.136719 34.84375 35.136719 34.773438 35.101562 34.550781 C 35.039062 34.113281 35.023438 34.054688 34.933594 33.863281 C 34.785156 33.558594 34.703125 33.515625 34.210938 33.453125 C 33.972656 33.421875 33.753906 33.359375 33.574219 33.273438 C 33.449219 33.214844 33.417969 33.210938 32.996094 33.199219 C 32.230469 33.175781 32.105469 33.148438 31.910156 32.945312 C 31.742188 32.769531 31.640625 32.683594 31.550781 32.640625 C 31.515625 32.621094 31.417969 32.53125 31.332031 32.441406 C 31.25 32.347656 31.167969 32.273438 31.152344 32.273438 C 31.140625 32.273438 31.097656 32.246094 31.058594 32.203125 C 31.023438 32.167969 30.957031 32.125 30.914062 32.113281 C 30.859375 32.09375 30.808594 32.042969 30.726562 31.925781 C 30.597656 31.734375 30.519531 31.652344 30.304688 31.492188 C 30.21875 31.425781 30.148438 31.363281 30.148438 31.351562 C 30.144531 31.316406 29.925781 31.035156 29.820312 30.941406 C 29.769531 30.894531 29.648438 30.773438 29.550781 30.671875 C 29.457031 30.570312 29.34375 30.464844 29.304688 30.429688 C 29.15625 30.308594 28.8125 29.945312 28.738281 29.832031 C 28.691406 29.765625 28.59375 29.65625 28.519531 29.585938 C 28.441406 29.511719 28.339844 29.398438 28.289062 29.324219 C 28.15625 29.140625 27.898438 28.890625 27.773438 28.828125 C 27.714844 28.800781 27.585938 28.703125 27.492188 28.621094 C 27.394531 28.535156 27.246094 28.433594 27.160156 28.390625 C 27.074219 28.347656 26.996094 28.304688 26.980469 28.289062 C 26.96875 28.273438 26.859375 28.21875 26.738281 28.167969 C 26.621094 28.117188 26.492188 28.054688 26.457031 28.03125 C 26.417969 28.011719 26.320312 27.957031 26.238281 27.914062 C 26.0625 27.828125 25.960938 27.769531 25.820312 27.675781 C 25.765625 27.636719 25.671875 27.597656 25.609375 27.585938 C 25.546875 27.570312 25.460938 27.53125 25.414062 27.496094 C 25.300781 27.410156 25.25 27.386719 25.148438 27.367188 C 25.039062 27.347656 24.863281 27.238281 24.792969 27.140625 C 24.734375 27.058594 24.699219 26.882812 24.648438 26.425781 C 24.636719 26.308594 24.613281 26.179688 24.601562 26.132812 C 24.589844 26.089844 24.574219 26.003906 24.5625 25.945312 C 24.554688 25.886719 24.535156 25.792969 24.515625 25.734375 C 24.496094 25.675781 24.472656 25.480469 24.464844 25.296875 C 24.429688 24.652344 24.394531 24.277344 24.359375 24.195312 C 24.34375 24.152344 24.324219 24.058594 24.324219 23.988281 C 24.324219 23.921875 24.3125 23.820312 24.296875 23.769531 C 24.285156 23.71875 24.257812 23.589844 24.242188 23.488281 C 24.222656 23.382812 24.1875 23.222656 24.164062 23.136719 C 24.144531 23.042969 24.109375 22.910156 24.09375 22.839844 C 24.074219 22.753906 24.0625 22.574219 24.066406 22.265625 C 24.066406 21.914062 24.0625 21.808594 24.035156 21.757812 C 23.984375 21.664062 23.972656 20.382812 24.023438 20.363281 C 24.046875 20.351562 24.058594 20.273438 24.066406 20.070312 C 24.09375 19.601562 24.097656 19.546875 24.132812 19.066406 C 24.164062 18.609375 24.164062 18.484375 24.113281 18.144531 C 24.078125 17.917969 23.972656 17.5 23.929688 17.433594 C 23.910156 17.40625 23.898438 17.351562 23.894531 17.316406 C 23.894531 17.222656 23.769531 16.886719 23.660156 16.703125 C 23.609375 16.605469 23.484375 16.453125 23.332031 16.300781 C 23.109375 16.078125 23.074219 16.050781 22.917969 15.992188 L 22.746094 15.925781 L 22.59375 15.671875 C 22.4375 15.410156 22.382812 15.351562 22.15625 15.207031 C 22.089844 15.160156 21.957031 15.050781 21.863281 14.957031 C 21.765625 14.867188 21.644531 14.765625 21.589844 14.726562 C 21.53125 14.691406 21.460938 14.640625 21.429688 14.617188 C 21.394531 14.59375 21.328125 14.554688 21.28125 14.535156 C 21.167969 14.476562 21.003906 14.34375 21.003906 14.304688 C 21.003906 14.285156 20.992188 14.253906 20.976562 14.230469 C 20.921875 14.132812 20.738281 13.726562 20.738281 13.699219 C 20.738281 13.6875 20.722656 13.648438 20.699219 13.621094 C 20.679688 13.59375 20.632812 13.476562 20.59375 13.363281 C 20.5 13.109375 20.398438 12.894531 20.332031 12.824219 C 20.246094 12.730469 20.105469 12.296875 20.078125 12.03125 C 20.070312 11.9375 20.050781 11.804688 20.03125 11.726562 C 20.011719 11.648438 19.988281 11.546875 19.980469 11.503906 C 19.972656 11.457031 19.945312 11.363281 19.917969 11.296875 C 19.894531 11.226562 19.871094 11.144531 19.871094 11.109375 C 19.871094 11.070312 19.855469 10.996094 19.835938 10.9375 C 19.761719 10.703125 19.730469 10.566406 19.714844 10.445312 C 19.707031 10.375 19.683594 10.28125 19.664062 10.246094 C 19.59375 10.09375 19.550781 9.933594 19.539062 9.773438 C 19.53125 9.683594 19.515625 9.597656 19.503906 9.582031 C 19.484375 9.558594 19.496094 9.550781 19.550781 9.550781 C 19.589844 9.550781 19.625 9.542969 19.625 9.53125 C 19.625 9.519531 19.640625 9.492188 19.660156 9.464844 C 19.667969 9.453125 19.675781 9.445312 19.679688 9.445312 C 19.691406 9.445312 19.691406 9.484375 19.6875 9.59375 C 19.683594 9.746094 19.699219 9.804688 19.753906 9.804688 C 19.78125 9.804688 19.820312 9.792969 19.875 9.765625 C 19.996094 9.707031 20.070312 9.59375 20.070312 9.480469 C 20.070312 9.4375 20.074219 9.417969 20.085938 9.417969 C 20.09375 9.417969 20.101562 9.421875 20.117188 9.429688 C 20.144531 9.445312 20.171875 9.449219 20.203125 9.449219 C 20.242188 9.449219 20.277344 9.4375 20.296875 9.410156 C 20.378906 9.308594 20.425781 9.167969 20.414062 9.082031 C 20.382812 8.890625 20.363281 8.824219 20.324219 8.78125 C 20.300781 8.753906 20.273438 8.683594 20.265625 8.617188 C 20.25 8.507812 20.226562 8.453125 20.101562 8.191406 C 20.078125 8.136719 19.996094 8.042969 19.917969 7.972656 C 19.839844 7.90625 19.777344 7.839844 19.777344 7.820312 C 19.777344 7.804688 19.75 7.773438 19.714844 7.75 C 19.636719 7.699219 19.640625 7.667969 19.726562 7.640625 C 19.78125 7.621094 19.796875 7.601562 19.796875 7.554688 C 19.796875 7.519531 19.78125 7.46875 19.761719 7.445312 C 19.742188 7.417969 19.726562 7.363281 19.726562 7.320312 C 19.726562 7.277344 19.714844 7.242188 19.703125 7.242188 C 19.691406 7.242188 19.648438 7.1875 19.605469 7.125 C 19.5625 7.058594 19.511719 7.007812 19.488281 7.007812 C 19.460938 7.007812 19.433594 6.976562 19.410156 6.921875 C 19.371094 6.832031 19.371094 6.832031 19.433594 6.828125 C 19.460938 6.820312 19.492188 6.804688 19.5 6.785156 C 19.519531 6.730469 19.855469 6.660156 20.203125 6.640625 C 20.34375 6.628906 20.519531 6.613281 20.589844 6.601562 C 20.660156 6.585938 20.839844 6.566406 20.988281 6.550781 C 21.136719 6.539062 21.371094 6.503906 21.507812 6.476562 C 21.875 6.402344 22.160156 6.351562 22.308594 6.328125 C 22.378906 6.320312 22.457031 6.300781 22.484375 6.285156 C 22.507812 6.273438 22.589844 6.253906 22.664062 6.246094 C 22.738281 6.238281 22.84375 6.210938 22.898438 6.191406 C 22.976562 6.160156 23.082031 6.148438 23.453125 6.144531 L 23.917969 6.140625 L 24.210938 6.242188 C 24.535156 6.347656 24.625 6.386719 24.695312 6.453125 C 24.722656 6.476562 24.816406 6.519531 24.90625 6.554688 C 25 6.585938 25.109375 6.632812 25.152344 6.648438 C 25.191406 6.667969 25.238281 6.683594 25.257812 6.683594 C 25.273438 6.683594 25.328125 6.703125 25.378906 6.730469 C 25.433594 6.753906 25.484375 6.773438 25.5 6.773438 C 25.515625 6.773438 25.558594 6.789062 25.597656 6.8125 C 25.726562 6.871094 26.386719 7.050781 26.488281 7.050781 C 26.488281 7.050781 26.492188 7.050781 26.492188 7.050781 C 26.515625 7.050781 26.617188 7.070312 26.714844 7.09375 C 26.808594 7.121094 26.941406 7.140625 27.003906 7.140625 C 27.003906 7.140625 27.003906 7.140625 27.007812 7.140625 C 27.007812 7.140625 27.011719 7.140625 27.011719 7.140625 C 27.074219 7.140625 27.136719 7.148438 27.148438 7.164062 C 27.179688 7.191406 27.480469 7.269531 27.726562 7.3125 C 27.835938 7.328125 27.984375 7.359375 28.054688 7.375 C 28.125 7.394531 28.25 7.417969 28.328125 7.429688 C 28.402344 7.445312 28.511719 7.464844 28.5625 7.480469 C 28.613281 7.492188 28.691406 7.503906 28.738281 7.503906 C 28.738281 7.503906 28.742188 7.503906 28.742188 7.503906 C 28.816406 7.503906 28.949219 7.554688 29.097656 7.652344 C 29.128906 7.667969 29.226562 7.710938 29.316406 7.746094 C 29.410156 7.78125 29.523438 7.828125 29.578125 7.851562 C 29.628906 7.871094 29.683594 7.894531 29.695312 7.898438 C 29.824219 7.945312 30.097656 8.128906 30.175781 8.21875 C 30.28125 8.347656 30.359375 8.410156 30.5 8.476562 C 30.527344 8.488281 30.652344 8.542969 30.773438 8.601562 C 30.894531 8.65625 31.027344 8.714844 31.0625 8.726562 C 31.101562 8.746094 31.164062 8.753906 31.21875 8.753906 C 31.265625 8.753906 31.3125 8.746094 31.335938 8.734375 C 31.339844 8.730469 31.351562 8.726562 31.363281 8.726562 C 31.382812 8.726562 31.40625 8.734375 31.429688 8.746094 C 31.460938 8.761719 31.609375 8.78125 31.757812 8.796875 C 31.925781 8.808594 32.042969 8.828125 32.078125 8.851562 C 32.113281 8.875 32.183594 8.886719 32.257812 8.886719 C 32.257812 8.886719 32.261719 8.886719 32.261719 8.886719 C 32.398438 8.886719 32.445312 8.855469 32.476562 8.75 C 32.488281 8.714844 32.503906 8.699219 32.535156 8.699219 C 32.558594 8.699219 32.59375 8.710938 32.648438 8.734375 C 32.691406 8.75 32.792969 8.765625 32.875 8.765625 C 32.875 8.765625 32.875 8.765625 32.878906 8.765625 C 33.007812 8.765625 33.035156 8.753906 33.128906 8.683594 C 33.292969 8.554688 33.34375 8.332031 33.234375 8.214844 C 33.183594 8.160156 32.96875 8.058594 32.902344 8.058594 C 32.886719 8.058594 32.832031 8.046875 32.785156 8.035156 C 32.6875 8.007812 32.667969 7.960938 32.730469 7.882812 C 32.785156 7.808594 32.773438 7.585938 32.714844 7.511719 C 32.671875 7.457031 32.664062 7.429688 32.675781 7.351562 C 32.695312 7.226562 32.652344 7.085938 32.582031 7.027344 L 32.519531 6.980469 L 32.578125 6.890625 C 32.640625 6.804688 32.660156 6.636719 32.625 6.542969 C 32.578125 6.433594 32.207031 6.351562 31.867188 6.351562 C 31.761719 6.351562 31.664062 6.359375 31.574219 6.375 C 31.503906 6.390625 31.277344 6.421875 31.070312 6.449219 L 30.695312 6.496094 L 30.53125 6.429688 C 30.441406 6.394531 30.328125 6.359375 30.28125 6.347656 C 30.175781 6.328125 29.976562 6.265625 29.8125 6.199219 C 29.53125 6.089844 29.011719 5.917969 28.824219 5.875 C 28.714844 5.851562 28.550781 5.796875 28.460938 5.75 C 28.238281 5.648438 27.917969 5.527344 27.640625 5.441406 C 27.519531 5.40625 27.34375 5.347656 27.253906 5.316406 C 27.164062 5.285156 27.050781 5.257812 27 5.257812 C 27 5.257812 26.996094 5.257812 26.996094 5.257812 C 26.878906 5.257812 26.707031 5.179688 26.691406 5.121094 C 26.675781 5.066406 26.496094 4.972656 26.34375 4.933594 C 26.285156 4.917969 26.183594 4.882812 26.117188 4.851562 C 26.007812 4.796875 25.882812 4.761719 25.585938 4.6875 C 25.417969 4.648438 25.277344 4.609375 24.949219 4.507812 C 24.800781 4.464844 24.585938 4.40625 24.472656 4.382812 C 24.359375 4.355469 24.195312 4.304688 24.105469 4.265625 C 23.949219 4.195312 23.597656 4.136719 23.386719 4.136719 C 23.355469 4.136719 23.324219 4.136719 23.300781 4.140625 C 23.097656 4.167969 22.398438 4.195312 22.019531 4.195312 C 21.902344 4.195312 21.816406 4.195312 21.785156 4.1875 C 21.460938 4.132812 21.269531 4.121094 20.523438 4.121094 C 20.421875 4.121094 20.308594 4.121094 20.183594 4.121094 C 19.929688 4.125 19.726562 4.125 19.570312 4.125 C 18.917969 4.125 18.964844 4.09375 18.90625 3.890625 C 18.871094 3.761719 18.84375 3.710938 18.75 3.613281 C 18.683594 3.550781 18.617188 3.46875 18.59375 3.441406 C 18.574219 3.410156 18.527344 3.371094 18.496094 3.359375 C 18.382812 3.308594 18.265625 3.21875 18.222656 3.148438 C 18.195312 3.101562 18.167969 2.96875 18.144531 2.78125 C 18.082031 2.222656 18.019531 2 17.867188 1.765625 C 17.820312 1.695312 17.761719 1.578125 17.730469 1.503906 C 17.65625 1.320312 17.523438 1.105469 17.457031 1.050781 C 17.425781 1.027344 17.375 0.96875 17.339844 0.917969 C 17.28125 0.824219 17.195312 0.773438 16.789062 0.589844 C 16.65625 0.527344 16.453125 0.496094 16.261719 0.496094 C 16.058594 0.496094 15.863281 0.53125 15.761719 0.597656 C 15.714844 0.632812 15.65625 0.660156 15.636719 0.660156 C 15.613281 0.660156 15.542969 0.691406 15.480469 0.730469 C 15.421875 0.769531 15.363281 0.800781 15.355469 0.800781 C 15.332031 0.800781 15.257812 0.707031 15.203125 0.605469 C 15.125 0.457031 15.070312 0.40625 14.902344 0.347656 C 14.828125 0.320312 14.722656 0.269531 14.671875 0.234375 C 14.621094 0.199219 14.570312 0.171875 14.554688 0.171875 C 14.539062 0.171875 14.453125 0.132812 14.363281 0.0859375 L 14.199219 0 L 13.785156 0 C 13.753906 0 13.722656 0 13.691406 0 Z M 13.691406 0 " fill-opacity="1" fill-rule="nonzero"/></g></svg>